<svg version="1.1" id="Layer_1" xmlns="http://www.w3.org/2000/svg" xmlns:xlink="http://www.w3.org/1999/xlink" x="0px" y="0px"
	 width="100%" viewBox="0 0 3547 3547" enable-background="new 0 0 3547 3547" xml:space="preserve">
<path fill="#000000" opacity="1.000000" stroke="none" 
	d="
M2090.000000,3550.000000 
	C1393.333374,3550.000000 697.666687,3550.000000 2.000000,3550.000000 
	C2.000000,2367.333252 2.000000,1184.666626 2.000000,2.000000 
	C1184.666626,2.000000 2367.333252,2.000000 3550.000000,2.000000 
	C3550.000000,1184.666626 3550.000000,2367.333252 3550.000000,3550.000000 
	C3063.666748,3550.000000 2577.333252,3550.000000 2090.000000,3550.000000 
M2087.664062,3103.000000 
	C2087.768066,3150.650146 2087.871338,3198.300293 2087.995605,3245.950439 
	C2087.996338,3246.220947 2088.260010,3246.520752 2088.462891,3246.752930 
	C2088.679199,3247.000488 2088.968994,3247.183594 2089.011963,3247.218750 
	C2466.710205,3247.218750 2844.193359,3247.218750 3221.596191,3247.218750 
	C3221.596191,3125.910645 3221.596191,3005.168701 3221.596191,2883.765137 
	C3103.334717,2883.765137 2985.812256,2883.765137 2868.222656,2883.765137 
	C2868.222656,2150.681641 2868.222656,1418.263306 2868.222656,684.987549 
	C2998.276367,684.987549 3127.777100,684.987549 3257.623779,684.987549 
	C3257.623779,564.245789 3257.623779,444.361694 3257.623779,323.641510 
	C3250.817627,322.837036 3244.281494,321.390320 3237.744873,321.388367 
	C2872.109863,321.279846 2506.474854,321.291016 2140.839844,321.308075 
	C2137.972900,321.308197 2135.105957,321.551971 2132.395508,321.674866 
	C2132.395508,443.199921 2132.395508,563.949402 2132.395508,685.494507 
	C2244.611084,685.494507 2356.098145,685.494507 2468.333252,685.494507 
	C2468.333252,689.873108 2468.333252,693.473328 2468.333252,697.073547 
	C2468.333252,813.730103 2468.192871,930.387146 2468.581055,1047.042358 
	C2468.614746,1057.138916 2465.603027,1064.559326 2459.448486,1072.108643 
	C2407.063477,1136.365356 2354.915527,1200.815918 2302.755615,1265.255859 
	C2222.117920,1364.877441 2141.564209,1464.566772 2060.906738,1564.172241 
	C1968.315552,1678.515137 1875.624268,1792.776855 1783.024414,1907.112671 
	C1701.971069,2007.192139 1620.973999,2107.317139 1539.969971,2207.436523 
	C1452.255737,2315.849609 1364.560425,2424.278320 1276.877808,2532.717041 
	C1275.530396,2534.383301 1274.450073,2536.265381 1272.222900,2539.558105 
	C1671.883545,2539.558105 2069.876465,2539.558105 2467.952637,2539.558105 
	C2467.952637,2654.835205 2467.952637,2769.027344 2467.952637,2884.196533 
	C2341.124512,2884.196533 2214.674805,2884.196533 2087.664062,2884.196533 
	C2087.664062,2957.115234 2087.664062,3029.057617 2087.664062,3103.000000 
M1005.669556,829.000122 
	C1005.669556,781.167480 1005.669556,733.334839 1005.669556,684.832520 
	C1136.344604,684.832520 1265.567505,684.832520 1395.002686,684.832520 
	C1395.002686,563.387756 1395.002686,442.628571 1395.002686,321.612549 
	C1019.790100,321.612549 645.242859,321.612549 270.179626,321.612549 
	C270.179626,442.739594 270.179626,563.542114 270.179626,685.457031 
	C382.324402,685.457031 494.069763,685.457031 605.649475,685.457031 
	C605.649475,1418.960083 605.649475,2151.350830 605.649475,2884.584473 
	C478.518005,2884.584473 352.069733,2884.584473 225.539093,2884.584473 
	C225.539093,3005.962158 225.539093,3126.495850 225.539093,3247.132324 
	C603.862000,3247.132324 981.630432,3247.132324 1359.535156,3247.132324 
	C1359.535156,3125.971436 1359.535156,3005.461426 1359.535156,2883.821289 
	C1241.327393,2883.821289 1123.580688,2883.821289 1005.670227,2883.821289 
	C1005.670227,2881.358154 1005.681091,2880.027344 1005.668701,2878.696777 
	C1004.622009,2766.458984 1007.669434,2654.204834 1004.110657,2541.972900 
	C1003.360962,2518.331299 1004.107056,2494.645264 1003.916321,2470.981445 
	C1003.876770,2466.068359 1005.117798,2462.244629 1008.201538,2458.287842 
	C1047.491455,2407.876953 1086.562866,2357.295654 1125.744385,2306.800293 
	C1202.465088,2207.926025 1279.246826,2109.099121 1355.952637,2010.213135 
	C1417.569580,1930.778931 1479.080811,1851.262695 1540.694580,1771.826050 
	C1623.108765,1665.571777 1705.572632,1559.355957 1788.022827,1453.129639 
	C1850.868042,1372.161865 1913.726196,1291.204102 1976.576294,1210.240112 
	C2018.213501,1156.602661 2059.851807,1102.965942 2101.468750,1049.312622 
	C2103.604004,1046.560059 2105.541992,1043.654419 2108.320068,1039.775513 
	C1923.606445,1039.775513 1740.363525,1039.775391 1557.120605,1039.775391 
	C1373.570190,1039.775391 1190.019897,1039.775513 1005.669556,1039.775513 
	C1005.669556,969.511841 1005.669556,900.256042 1005.669556,829.000122 
z"/>
<path fill="#FFFFFF" opacity="1.000000" stroke="none" 
	d="
M2087.664062,3102.000000 
	C2087.664062,3029.057617 2087.664062,2957.115234 2087.664062,2884.196533 
	C2214.674805,2884.196533 2341.124512,2884.196533 2467.952637,2884.196533 
	C2467.952637,2769.027344 2467.952637,2654.835205 2467.952637,2539.558105 
	C2069.876465,2539.558105 1671.883545,2539.558105 1272.222900,2539.558105 
	C1274.450073,2536.265381 1275.530396,2534.383301 1276.877808,2532.717041 
	C1364.560425,2424.278320 1452.255737,2315.849609 1539.969971,2207.436523 
	C1620.973999,2107.317139 1701.971069,2007.192139 1783.024414,1907.112671 
	C1875.624268,1792.776855 1968.315552,1678.515137 2060.906738,1564.172241 
	C2141.564209,1464.566772 2222.117920,1364.877441 2302.755615,1265.255859 
	C2354.915527,1200.815918 2407.063477,1136.365356 2459.448486,1072.108643 
	C2465.603027,1064.559326 2468.614746,1057.138916 2468.581055,1047.042358 
	C2468.192871,930.387146 2468.333252,813.730103 2468.333252,697.073547 
	C2468.333252,693.473328 2468.333252,689.873108 2468.333252,685.494507 
	C2356.098145,685.494507 2244.611084,685.494507 2132.395508,685.494507 
	C2132.395508,563.949402 2132.395508,443.199921 2132.395508,321.674866 
	C2135.105957,321.551971 2137.972900,321.308197 2140.839844,321.308075 
	C2506.474854,321.291016 2872.109863,321.279846 3237.744873,321.388367 
	C3244.281494,321.390320 3250.817627,322.837036 3257.623779,323.641510 
	C3257.623779,444.361694 3257.623779,564.245789 3257.623779,684.987549 
	C3127.777100,684.987549 2998.276367,684.987549 2868.222656,684.987549 
	C2868.222656,1418.263306 2868.222656,2150.681641 2868.222656,2883.765137 
	C2985.812256,2883.765137 3103.334717,2883.765137 3221.596191,2883.765137 
	C3221.596191,3005.168701 3221.596191,3125.910645 3221.596191,3247.218750 
	C2844.193359,3247.218750 2466.710205,3247.218750 2089.011963,3247.218750 
	C2088.968994,3247.183594 2088.679199,3247.000488 2088.462891,3246.752930 
	C2088.260010,3246.520752 2087.996338,3246.220947 2087.995605,3245.950439 
	C2087.871338,3198.300293 2087.768066,3150.650146 2087.664062,3102.000000 
z"/>
<path fill="#FFFFFF" opacity="1.000000" stroke="none" 
	d="
M1005.669556,830.000183 
	C1005.669556,900.256042 1005.669556,969.511841 1005.669556,1039.775513 
	C1190.019897,1039.775513 1373.570190,1039.775391 1557.120605,1039.775391 
	C1740.363525,1039.775391 1923.606445,1039.775513 2108.320068,1039.775513 
	C2105.541992,1043.654419 2103.604004,1046.560059 2101.468750,1049.312622 
	C2059.851807,1102.965942 2018.213501,1156.602661 1976.576294,1210.240112 
	C1913.726196,1291.204102 1850.868042,1372.161865 1788.022827,1453.129639 
	C1705.572632,1559.355957 1623.108765,1665.571777 1540.694580,1771.826050 
	C1479.080811,1851.262695 1417.569580,1930.778931 1355.952637,2010.213135 
	C1279.246826,2109.099121 1202.465088,2207.926025 1125.744385,2306.800293 
	C1086.562866,2357.295654 1047.491455,2407.876953 1008.201538,2458.287842 
	C1005.117798,2462.244629 1003.876770,2466.068359 1003.916321,2470.981445 
	C1004.107056,2494.645264 1003.360962,2518.331299 1004.110657,2541.972900 
	C1007.669434,2654.204834 1004.622009,2766.458984 1005.668701,2878.696777 
	C1005.681091,2880.027344 1005.670227,2881.358154 1005.670227,2883.821289 
	C1123.580688,2883.821289 1241.327393,2883.821289 1359.535156,2883.821289 
	C1359.535156,3005.461426 1359.535156,3125.971436 1359.535156,3247.132324 
	C981.630432,3247.132324 603.862000,3247.132324 225.539093,3247.132324 
	C225.539093,3126.495850 225.539093,3005.962158 225.539093,2884.584473 
	C352.069733,2884.584473 478.518005,2884.584473 605.649475,2884.584473 
	C605.649475,2151.350830 605.649475,1418.960083 605.649475,685.457031 
	C494.069763,685.457031 382.324402,685.457031 270.179626,685.457031 
	C270.179626,563.542114 270.179626,442.739594 270.179626,321.612549 
	C645.242859,321.612549 1019.790100,321.612549 1395.002686,321.612549 
	C1395.002686,442.628571 1395.002686,563.387756 1395.002686,684.832520 
	C1265.567505,684.832520 1136.344604,684.832520 1005.669556,684.832520 
	C1005.669556,733.334839 1005.669556,781.167480 1005.669556,830.000183 
z"/>
</svg>